<?xml version="1.0" encoding="utf-8"?>
<!-- Generator: Adobe Illustrator 16.0.0, SVG Export Plug-In . SVG Version: 6.00 Build 0)  -->
<!DOCTYPE svg PUBLIC "-//W3C//DTD SVG 1.1//EN" "http://www.w3.org/Graphics/SVG/1.1/DTD/svg11.dtd">
<svg version="1.1" id="Layer_1" xmlns="http://www.w3.org/2000/svg" xmlns:xlink="http://www.w3.org/1999/xlink" x="0px" y="0px"
	 width="358.723px" height="72.131px" viewBox="0 0 358.723 72.131" enable-background="new 0 0 358.723 72.131"
	 xml:space="preserve">
<path fill="#231F20" d="M6.386,37.688c0-3.665-2.722-6.7-6.386-7.537V22.3h6.386V10.784h11.62V22.3h18.217v10.363h-22.09v3.561
	c2.513,0.732,3.873,2.93,3.873,5.863v19.574h18.217v10.47H11.515c-2.616,0-5.129-2.198-5.129-5.235V37.688z"/>
<path fill="#231F20" d="M130.21,61.661L114.612,45.54l12.04-12.877h7.118V22.3h-8.689c-2.512,0-4.083,0.942-5.129,1.989
	l-15.39,16.854h-2.407V5.13c0-2.512-2.199-5.13-5.13-5.13H84.147v10.47h6.386v51.191h-5.895h-0.596H50.317V49.729h4.188
	c0.523,2.721,2.513,3.663,5.024,3.663h20.31c3.036,0,5.235-2.198,5.235-5.235V27.638c0-3.035-2.199-5.338-5.235-5.338H44.036
	c-2.722,0-5.34,2.303-5.34,5.338v39.258c0,3.037,2.618,5.235,5.34,5.235h40.007h1.03h11.951c2.931,0,5.13-2.198,5.13-5.235V50.984
	h3.035l17.798,19.263c1.569,1.465,3.036,1.884,5.024,1.884h5.758v-10.47H130.21z M50.317,32.663h23.135v10.365H50.317V32.663z"/>
<rect x="198.291" y="0.143" fill="#231F20" width="11.621" height="12.772"/>
<path fill="#231F20" d="M206.451,61.661v-3.453c2.617-0.629,3.873-2.722,3.873-4.816V27.638c0-3.035-2.305-5.338-5.131-5.338h-12.98
	v10.363h6.49v24.184c0,3.559-2.512,3.635-6.49,4.682v10.603h24.602h12.982c2.932,0,5.129-2.198,5.129-5.235V50.984h3.035
	l17.799,19.263c1.57,1.465,3.035,1.884,5.023,1.884h9.004v-10.47h-6.805l-15.6-16.121l12.041-12.877h7.119V22.3h-8.691
	c-2.512,0-4.082,0.942-5.129,1.989l-15.389,16.854h-2.408V5.13c0-2.512-2.197-5.13-5.129-5.13H216.92v10.47h6.385v51.191"/>
<path fill="#231F20" d="M272.262,61.661h11.453v10.47h-11.453V61.661z"/>
<path fill="#231F20" d="M286.188,61.661c3.92-1.049,6.396-1.279,6.396-4.846V32.582h-6.396V22.196h12.793
	c2.787,0,5.057,2.308,5.057,5.35v25.806c0,2.099-1.238,4.197-3.818,4.826v3.462h10.215v10.49h-24.246V61.661z"/>
<rect x="292.584" fill="#231F20" width="11.453" height="12.798"/>
<path fill="#231F20" d="M312.91,27.546c0-3.042,2.477-5.35,5.365-5.35h35.186c2.992,0,5.262,2.308,5.262,5.35v39.339
	c0,3.042-2.27,5.245-5.262,5.245h-35.186c-2.889,0-5.365-2.203-5.365-5.245V27.546z M347.27,61.641V32.582h-22.906v29.059H347.27z"
	/>
<path fill="#231F20" d="M183.248,61.661V27.638c0-3.035-2.721-5.338-5.547-5.338h-25.754l-4.71,7.747h-0.209v-2.514
	c0-2.093-1.676-5.233-5.444-5.233l-5.34-0.135v10.498v21.59v2.594v15.284h18.217v-10.47h-10.469v-3.453
	c2.617-0.629,3.873-2.722,3.873-4.816V40.2c0-4.396,3.455-7.537,7.852-7.537h15.912v34.232c0,3.037,2.408,5.235,5.235,5.235h12.876
	v-10.47H183.248z"/>
</svg>
