<?xml version="1.0" encoding="utf-8"?>
<!-- Generator: Adobe Illustrator 16.0.0, SVG Export Plug-In . SVG Version: 6.00 Build 0)  -->
<!DOCTYPE svg PUBLIC "-//W3C//DTD SVG 1.1//EN" "http://www.w3.org/Graphics/SVG/1.1/DTD/svg11.dtd">
<svg version="1.1" id="Layer_1" xmlns="http://www.w3.org/2000/svg" xmlns:xlink="http://www.w3.org/1999/xlink" x="0px" y="0px"
	 width="263.292px" height="72.13px" viewBox="0 0 263.292 72.13" enable-background="new 0 0 263.292 72.13" xml:space="preserve">
<path fill="#418BCA" d="M6.386,37.689c0-3.666-2.722-6.7-6.386-7.538V22.3h6.386V10.784h11.62V22.3h18.217v10.363h-22.09v3.561
	c2.513,0.732,3.873,2.93,3.873,5.863v19.574h18.217V72.13H11.515c-2.616,0-5.129-2.197-5.129-5.234V37.689z"/>
<path fill="#418BCA" d="M130.21,61.662l-15.599-16.121l12.04-12.877h7.118V22.3h-8.689c-2.512,0-4.083,0.942-5.129,1.989
	l-15.39,16.854h-2.407V5.13c0-2.512-2.199-5.13-5.13-5.13H84.147v10.47h6.386v51.192h-5.895h-0.596H50.317V49.728h4.188
	c0.523,2.721,2.513,3.664,5.024,3.664h20.31c3.036,0,5.235-2.199,5.235-5.236V27.638c0-3.035-2.199-5.338-5.235-5.338H44.036
	c-2.722,0-5.34,2.303-5.34,5.338v39.258c0,3.037,2.618,5.234,5.34,5.234h40.007h1.03h11.951c2.931,0,5.13-2.197,5.13-5.234V50.984
	h3.035l17.798,19.264c1.569,1.465,3.036,1.883,5.024,1.883h5.758V61.662H130.21z M50.317,32.663h23.135v10.366H50.317V32.663z"/>
<polygon fill="#418BCA" points="203.416,0 196.745,0 191.794,0 191.794,12.772 203.416,12.772 "/>
<path fill="#418BCA" d="M199.955,61.662v-3.453c2.617-0.629,3.873-2.723,3.873-4.816V27.638c0-3.035-2.304-5.338-5.13-5.338h-12.98
	v10.363h6.489v24.184c0,3.559-2.512,3.635-6.489,4.682V72.13h24.602H223.3c2.932,0,5.13-2.197,5.13-5.234V50.984h3.035
	l17.798,19.264c1.57,1.465,3.036,1.883,5.024,1.883h9.004V61.662h-6.805l-15.6-16.121l12.04-12.877h7.119V22.3h-8.69
	c-2.512,0-4.082,0.942-5.129,1.989l-15.39,16.854h-2.407V5.13c0-2.512-2.198-5.13-5.13-5.13h-12.877v10.47h6.386v51.192"/>
<path fill="#418BCA" d="M183.249,61.662V27.638c0-3.035-2.721-5.338-5.548-5.338h-25.754l-4.71,7.747h-0.209v-2.514
	c0-2.093-1.676-5.233-5.444-5.233l-5.34-0.135v10.498v21.59v2.594V72.13h18.217V61.662h-10.469v-3.453
	c2.617-0.629,3.873-2.723,3.873-4.816V40.201c0-4.396,3.455-7.538,7.852-7.538h15.912v34.233c0,1.289,0.435,2.428,1.151,3.311
	c0.97,1.197,2.458,1.924,4.084,1.924h6.381L183.249,61.662L183.249,61.662z"/>
<rect x="171.628" y="54.419" fill="#418BCA" width="11.62" height="6.25"/>
</svg>
